{
    "asset" : {
        "generator" : "Khronos glTF Blender I/O v1.7.33",
        "version" : "2.0"
    },
    "scene" : 0,
    "scenes" : [
        {
            "name" : "Scene",
            "nodes" : [
                0
            ]
        }
    ],
    "nodes" : [
        {
            "mesh" : 0,
            "name" : "cover"
        }
    ],
    "materials" : [
        {
            "doubleSided" : true,
            "name" : "clothing necr",
            "pbrMetallicRoughness" : {
                "baseColorFactor" : [
                    0.09416622668504715,
                    0.09477134793996811,
                    0.10428784787654877,
                    1
                ],
                "metallicFactor" : 0,
                "roughnessFactor" : 0.5
            }
        }
    ],
    "meshes" : [
        {
            "name" : "Grade.001",
            "primitives" : [
                {
                    "attributes" : {
                        "POSITION" : 0,
                        "NORMAL" : 1,
                        "TEXCOORD_0" : 2
                    },
                    "indices" : 3,
                    "material" : 0
                }
            ]
        }
    ],
    "accessors" : [
        {
            "bufferView" : 0,
            "componentType" : 5126,
            "count" : 650,
            "max" : [
                1.666680097579956,
                15.595968246459961,
                5.416613578796387
            ],
            "min" : [
                -3.7083561420440674,
                0.6309733390808105,
                -5.495518207550049
            ],
            "type" : "VEC3"
        },
        {
            "bufferView" : 1,
            "componentType" : 5126,
            "count" : 650,
            "type" : "VEC3"
        },
        {
            "bufferView" : 2,
            "componentType" : 5126,
            "count" : 650,
            "type" : "VEC2"
        },
        {
            "bufferView" : 3,
            "componentType" : 5123,
            "count" : 3516,
            "type" : "SCALAR"
        }
    ],
    "bufferViews" : [
        {
            "buffer" : 0,
            "byteLength" : 7800,
            "byteOffset" : 0
        },
        {
            "buffer" : 0,
            "byteLength" : 7800,
            "byteOffset" : 7800
        },
        {
            "buffer" : 0,
            "byteLength" : 5200,
            "byteOffset" : 15600
        },
        {
            "buffer" : 0,
            "byteLength" : 7032,
            "byteOffset" : 20800
        }
    ],
    "buffers" : [
        {
            "byteLength" : 27832,
            "uri" : "data:application/octet-stream;base64,"
        }
    ]
}
